<?xml version="1.0" encoding="utf-8"?>
<!-- Generator: Adobe Illustrator 25.0.1, SVG Export Plug-In . SVG Version: 6.00 Build 0)  -->
<svg version="1.2" baseProfile="tiny" id="Layer_1" xmlns="http://www.w3.org/2000/svg" xmlns:xlink="http://www.w3.org/1999/xlink"
	 x="0px" y="0px" viewBox="0 0 100 100" overflow="visible" xml:space="preserve">
<path fill="none" stroke="#000000" stroke-width="6" stroke-miterlimit="10" d="M20,69h57.29c1.64,0,3.12-1,3.72-2.53
	C84.12,58.6,93.27,34.5,92.75,25c-0.32-5.81-5.12-10.32-11.75-6.8c-2.58,1.37-4.65,3.56-5.94,6.18C67.55,39.67,24.75,75,24.75,75"/>
<path fill="none" stroke="#000000" stroke-width="6" stroke-miterlimit="10" d="M20.25,31h57.29c1.64,0,3.12,1,3.72,2.53
	C84.37,41.4,93.52,65.5,93,75c-0.32,5.81-5.12,10.32-11.75,6.8c-2.58-1.37-4.65-3.56-5.94-6.18C67.8,60.33,25,25,25,25"/>
<line fill="none" stroke="#000000" stroke-width="6" stroke-miterlimit="10" x1="20.25" y1="50" x2="80.25" y2="50"/>
</svg>
