<?xml version="1.0" encoding="utf-8"?>
<!-- Generator: Adobe Illustrator 25.0.1, SVG Export Plug-In . SVG Version: 6.00 Build 0)  -->
<svg version="1.2" baseProfile="tiny" id="Layer_1" xmlns="http://www.w3.org/2000/svg" xmlns:xlink="http://www.w3.org/1999/xlink"
	 x="0px" y="0px" viewBox="0 0 516 67" overflow="visible" xml:space="preserve">
<g id="zo">
	<path fill="#F5F5F5" d="M23.24,53.14h25.8v8.47H10.06v-6.19l25.31-36.46H10.09v-8.54h38.39v6.05L23.24,53.14z"/>
	<path fill="#F5F5F5" d="M52.7,42.25c0-3.77,0.73-7.14,2.18-10.09c1.45-2.95,3.54-5.24,6.28-6.86c2.73-1.62,5.9-2.43,9.51-2.43
		c5.13,0,9.32,1.57,12.57,4.71c3.25,3.14,5.06,7.41,5.43,12.8l0.07,2.6c0,5.84-1.63,10.52-4.89,14.04
		c-3.26,3.53-7.63,5.29-13.11,5.29s-9.86-1.76-13.13-5.27s-4.9-8.3-4.9-14.34V42.25z M62.86,42.97c0,3.62,0.68,6.38,2.04,8.29
		c1.36,1.91,3.3,2.87,5.84,2.87c2.46,0,4.38-0.94,5.77-2.83c1.38-1.89,2.07-4.91,2.07-9.07c0-3.54-0.69-6.29-2.07-8.24
		c-1.38-1.95-3.33-2.92-5.84-2.92c-2.48,0-4.41,0.97-5.77,2.9C63.54,35.91,62.86,38.91,62.86,42.97z"/>
</g>
<g id="e_1_">
	<path id="e" fill="#F5F5F5" d="M134.2,62.32c-5.58,0-10.12-1.71-13.62-5.13c-3.5-3.42-5.26-7.98-5.26-13.68v-0.98
		c0-3.82,0.74-7.24,2.21-10.25c1.48-3.01,3.57-5.33,6.28-6.96c2.71-1.63,5.79-2.44,9.26-2.44c5.2,0,9.3,1.64,12.29,4.92
		c2.99,3.28,4.48,7.93,4.48,13.96v4.15h-24.22c0.33,2.48,1.32,4.48,2.97,5.98c1.65,1.5,3.74,2.25,6.28,2.25
		c3.91,0,6.97-1.42,9.18-4.25l4.99,5.59c-1.52,2.16-3.59,3.84-6.19,5.04S137.36,62.32,134.2,62.32z M128.22,13.61
		c0,1.25-0.46,2.3-1.37,3.16c-0.91,0.86-2.09,1.29-3.52,1.29c-1.45,0-2.62-0.44-3.52-1.31c-0.89-0.87-1.34-1.92-1.34-3.14
		c0-1.22,0.44-2.28,1.34-3.16c0.89-0.88,2.06-1.32,3.52-1.32c1.45,0,2.63,0.44,3.53,1.32C127.77,11.33,128.22,12.39,128.22,13.61z
		 M133.04,31.07c-2.02,0-3.65,0.68-4.9,2.05c-1.25,1.37-2.06,3.32-2.41,5.86h14.13v-0.81c-0.05-2.26-0.66-4.01-1.83-5.24
		C136.86,31.68,135.19,31.07,133.04,31.07z M135.6,13.61c0-1.27,0.47-2.33,1.42-3.19c0.95-0.86,2.1-1.29,3.46-1.29
		c1.38,0,2.54,0.44,3.46,1.31c0.93,0.87,1.39,1.93,1.39,3.18c0,1.22-0.45,2.28-1.34,3.16c-0.89,0.88-2.06,1.32-3.52,1.32
		c-1.45,0-2.63-0.44-3.53-1.32C136.05,15.89,135.6,14.83,135.6,13.61z"/>
</g>
<g id="da">
	<path fill="#F5F5F5" d="M174.2,60.62V9.43h15.75c4.5,0,8.53,1.01,12.08,3.04c3.55,2.03,6.32,4.91,8.31,8.65
		c1.99,3.74,2.99,7.99,2.99,12.74v2.36c0,4.76-0.98,8.99-2.94,12.69c-1.96,3.7-4.72,6.57-8.28,8.61c-3.56,2.04-7.58,3.07-12.06,3.09
		H174.2z M184.75,17.97v34.17h5.1c4.12,0,7.28-1.35,9.46-4.04c2.18-2.69,3.29-6.55,3.34-11.57v-2.71c0-5.2-1.08-9.15-3.23-11.83
		c-2.16-2.68-5.31-4.03-9.46-4.03H184.75z"/>
	<path fill="#F5F5F5" d="M242.37,61.62c-0.47-0.91-0.81-2.05-1.02-3.41c-2.46,2.74-5.66,4.11-9.6,4.11c-3.73,0-6.82-1.08-9.26-3.23
		c-2.45-2.16-3.67-4.87-3.67-8.16c0-4.03,1.49-7.12,4.48-9.28c2.99-2.16,7.31-3.25,12.96-3.27h4.68V36.2c0-1.76-0.45-3.16-1.35-4.22
		c-0.9-1.05-2.33-1.58-4.27-1.58c-1.71,0-3.05,0.41-4.03,1.23c-0.97,0.82-1.46,1.95-1.46,3.38h-10.16c0-2.2,0.68-4.24,2.04-6.12
		c1.36-1.88,3.28-3.35,5.77-4.41c2.48-1.07,5.27-1.6,8.37-1.6c4.69,0,8.41,1.18,11.16,3.53c2.75,2.36,4.13,5.67,4.13,9.93v16.49
		c0.02,3.61,0.53,6.34,1.51,8.19v0.6H242.37z M233.97,54.55c1.5,0,2.88-0.33,4.15-1s2.2-1.56,2.81-2.69v-6.54h-3.8
		c-5.09,0-7.79,1.76-8.12,5.27l-0.04,0.6c0,1.27,0.44,2.31,1.34,3.13C231.2,54.14,232.42,54.55,233.97,54.55z"/>
</g>
<g id="vid">
	<path fill="#F5F5F5" d="M294.86,49.21l7.07-25.63h10.62l-12.83,38.04h-9.7l-12.83-38.04h10.62L294.86,49.21z"/>
	<path fill="#F5F5F5" d="M316.94,13.73c0-1.52,0.51-2.78,1.53-3.76s2.41-1.48,4.17-1.48c1.73,0,3.12,0.49,4.15,1.48
		c1.03,0.98,1.55,2.24,1.55,3.76c0,1.55-0.52,2.81-1.56,3.8c-1.04,0.98-2.42,1.48-4.13,1.48c-1.71,0-3.09-0.49-4.13-1.48
		C317.46,16.55,316.94,15.28,316.94,13.73z M327.73,61.62h-10.2V23.58h10.2V61.62z"/>
	<path fill="#F5F5F5" d="M334.52,42.32c0-5.93,1.33-10.65,3.99-14.17c2.66-3.52,6.3-5.27,10.92-5.27c3.7,0,6.76,1.38,9.18,4.15V7.62
		h10.2v54h-9.18l-0.49-4.04c-2.53,3.16-5.79,4.75-9.77,4.75c-4.48,0-8.07-1.76-10.78-5.29C335.87,53.5,334.52,48.6,334.52,42.32z
		 M344.68,43.07c0,3.57,0.62,6.3,1.86,8.2c1.24,1.9,3.05,2.85,5.41,2.85c3.14,0,5.36-1.33,6.64-3.98V35.11
		c-1.27-2.65-3.46-3.98-6.57-3.98C347.12,31.14,344.68,35.11,344.68,43.07z"/>
</g>
<g id="son">
	<path fill="#F5F5F5" d="M418.96,51.1c0-1.24-0.62-2.22-1.85-2.94c-1.23-0.71-3.21-1.35-5.92-1.92c-9.05-1.9-13.57-5.74-13.57-11.53
		c0-3.38,1.4-6.19,4.2-8.46c2.8-2.26,6.46-3.39,10.99-3.39c4.83,0,8.69,1.14,11.58,3.41c2.89,2.27,4.34,5.23,4.34,8.86h-10.16
		c0-1.45-0.47-2.65-1.41-3.6s-2.4-1.42-4.39-1.42c-1.71,0-3.04,0.39-3.97,1.16c-0.94,0.77-1.41,1.76-1.41,2.95
		c0,1.12,0.53,2.03,1.6,2.72c1.07,0.69,2.87,1.29,5.4,1.79c2.53,0.5,4.66,1.07,6.4,1.71c5.37,1.97,8.05,5.38,8.05,10.23
		c0,3.47-1.49,6.28-4.46,8.42s-6.82,3.22-11.53,3.22c-3.19,0-6.02-0.57-8.49-1.71c-2.47-1.14-4.41-2.69-5.82-4.68
		c-1.41-1.98-2.11-4.12-2.11-6.42h9.63c0.09,1.81,0.76,3.19,2,4.15c1.24,0.96,2.91,1.44,4.99,1.44c1.95,0,3.42-0.37,4.41-1.11
		S418.96,52.3,418.96,51.1z"/>
	<path fill="#F5F5F5" d="M433.8,42.25c0-3.77,0.73-7.14,2.18-10.09s3.54-5.24,6.28-6.86s5.9-2.43,9.51-2.43
		c5.13,0,9.32,1.57,12.57,4.71c3.25,3.14,5.06,7.41,5.43,12.8l0.07,2.6c0,5.84-1.63,10.52-4.89,14.04
		c-3.26,3.53-7.63,5.29-13.11,5.29s-9.86-1.76-13.13-5.27s-4.9-8.3-4.9-14.34V42.25z M443.96,42.97c0,3.62,0.68,6.38,2.04,8.29
		c1.36,1.91,3.3,2.87,5.84,2.87c2.46,0,4.38-0.94,5.77-2.83s2.07-4.91,2.07-9.07c0-3.54-0.69-6.29-2.07-8.24
		c-1.38-1.95-3.33-2.92-5.84-2.92c-2.48,0-4.41,0.97-5.77,2.9C444.64,35.91,443.96,38.91,443.96,42.97z"/>
	<path fill="#F5F5F5" d="M485.44,23.58l0.32,4.39c2.72-3.4,6.36-5.1,10.93-5.1c4.03,0,7.03,1.18,9,3.55
		c1.97,2.37,2.98,5.91,3.02,10.62v24.57h-10.16V37.29c0-2.16-0.47-3.72-1.41-4.69c-0.94-0.97-2.5-1.46-4.68-1.46
		c-2.86,0-5,1.22-6.43,3.66v26.82h-10.16V23.58H485.44z"/>
</g>
<g id="dots">
	<path fill="#F5F5F5" d="M96.02,37.11c0-1.62,0.54-2.93,1.62-3.94c1.08-1.01,2.45-1.51,4.11-1.51c1.66,0,3.04,0.5,4.13,1.51
		c1.09,1.01,1.63,2.32,1.63,3.94s-0.55,2.92-1.65,3.92c-1.1,1-2.47,1.49-4.11,1.49c-1.69,0-3.06-0.51-4.13-1.53
		C96.55,39.98,96.02,38.68,96.02,37.11z"/>
	<path fill="#F5F5F5" d="M259.95,37.11c0-1.62,0.54-2.93,1.62-3.94c1.08-1.01,2.45-1.51,4.11-1.51c1.66,0,3.04,0.5,4.13,1.51
		c1.09,1.01,1.63,2.32,1.63,3.94s-0.55,2.92-1.65,3.92c-1.1,1-2.47,1.49-4.11,1.49c-1.69,0-3.06-0.51-4.13-1.53
		C260.48,39.98,259.95,38.68,259.95,37.11z"/>
	<path fill="#F5F5F5" d="M377.69,37.11c0-1.62,0.54-2.93,1.62-3.94c1.08-1.01,2.45-1.51,4.11-1.51c1.66,0,3.04,0.5,4.13,1.51
		c1.09,1.01,1.63,2.32,1.63,3.94s-0.55,2.92-1.65,3.92c-1.1,1-2.47,1.49-4.11,1.49c-1.69,0-3.06-0.51-4.13-1.53
		C378.22,39.98,377.69,38.68,377.69,37.11z"/>
</g>
</svg>
